<svg id="IconoCiber" xmlns="http://www.w3.org/2000/svg" xmlns:xlink="http://www.w3.org/1999/xlink" width="120.004" height="119.998" viewBox="0 0 78.624 78.62">
  <defs>
    <style>
      .cls-1, .cls-2 {
        fill: #016d38;
      }

      .cls-2 {
        fill-rule: evenodd;
        filter: url(#filter);
      }
    </style>
    <filter id="filter" x="659" y="1198" width="48" height="50" filterUnits="userSpaceOnUse">
      <feFlood result="flood" flood-color="#fff"/>
      <feComposite result="composite" operator="in" in2="SourceGraphic"/>
      <feBlend result="blend" in2="SourceGraphic"/>
    </filter>
  </defs>
  <circle id="Elipse_2" data-name="Elipse 2" class="cls-1" cx="39.312" cy="39.31" r="39.312"/>
  <path id="Forma_12" data-name="Forma 12" class="cls-2" d="M692.29,1241.57h13.162v2.41a2.37,2.37,0,0,1-2.323,2.41H662.871a2.37,2.37,0,0,1-2.323-2.41v-2.41H673.71v-1.61H659v4.02a3.95,3.95,0,0,0,3.871,4.02h40.258a3.95,3.95,0,0,0,3.871-4.02v-4.02H692.29v1.61Zm-14.709,3.21h10.838a2.37,2.37,0,0,0,2.323-2.41v-2.41H675.258v2.41A2.37,2.37,0,0,0,677.581,1244.78Zm-0.775-3.21h12.388v0.8a0.791,0.791,0,0,1-.775.81H677.581a0.791,0.791,0,0,1-.775-0.81v-0.8ZM662.1,1213.44a2.378,2.378,0,0,1,2.322-2.42h17.807v-1.6H664.419a3.95,3.95,0,0,0-3.871,4.02v24.91H662.1v-24.91Zm41.806,9.64h1.549v15.27H703.9v-15.27Zm-21.677-10.45H665.194a1.581,1.581,0,0,0-1.549,1.61v24.11h1.549v-24.11h17.032v-1.61Zm18.58,12.86h1.549v12.86h-1.549v-12.86Zm4.809-24.11a17.186,17.186,0,0,1-9.8-3.08l-0.43-.3-0.43.3a17.181,17.181,0,0,1-9.8,3.08h-1.385v12.06a11.621,11.621,0,1,0,23.226,0v-12.06h-1.385Zm-0.163,12.06a10.071,10.071,0,1,1-20.129,0v-10.46a18.575,18.575,0,0,0,10.064-3.06,18.575,18.575,0,0,0,10.065,3.06v10.46Zm-10.433-11.43a20.076,20.076,0,0,1-7.463,2.44l-0.685.08v8.91a8.522,8.522,0,1,0,17.032,0v-8.91l-0.686-.08a20.248,20.248,0,0,1-7.462-2.44l-0.368-.21Zm7.336,3.94v7.49a6.973,6.973,0,1,1-13.936,0v-7.49a21.643,21.643,0,0,0,6.968-2.32A21.651,21.651,0,0,0,702.355,1205.95Zm-10.374,6.84-0.929,1.29,3.737,2.91,5.877-8.72-1.268-.92-4.961,7.36Zm-21.368,25.56h9.29a2.37,2.37,0,0,0,2.323-2.41v-8.04a2.4,2.4,0,0,0-1.549-2.26v-2.56a5.423,5.423,0,1,0-10.838,0v2.56a2.4,2.4,0,0,0-1.549,2.26v8.04A2.37,2.37,0,0,0,670.613,1238.35Zm4.645-19.29a3.956,3.956,0,0,1,3.871,4.02v2.41h-7.742v-2.41A3.957,3.957,0,0,1,675.258,1219.06Zm-5.419,8.84a0.789,0.789,0,0,1,.774-0.8h9.29a0.788,0.788,0,0,1,.774.8v8.04a0.791,0.791,0,0,1-.774.81h-9.29a0.791,0.791,0,0,1-.774-0.81v-8.04Zm4.645,5.48v1.76h1.548v-1.76A2.323,2.323,0,1,0,674.484,1233.38Zm0.774-3.06a0.8,0.8,0,1,1-.774.8A0.789,0.789,0,0,1,675.258,1230.32Zm-10.064,12.86h1.548v1.6h-1.548v-1.6Zm3.1,0h1.549v1.6H668.29v-1.6Zm3.1,0h1.549v1.6h-1.549v-1.6Z" transform="translate(-643.688 -1186.69)"/>
</svg>
