<?xml version="1.0" encoding="utf-8"?>
<!-- Generator: Adobe Illustrator 25.0.0, SVG Export Plug-In . SVG Version: 6.00 Build 0)  -->
<svg version="1.1" id="Capa_1" xmlns="http://www.w3.org/2000/svg" xmlns:xlink="http://www.w3.org/1999/xlink" x="0px" y="0px"
	 viewBox="0 0 156.3 11.5" style="enable-background:new 0 0 156.3 11.5;" xml:space="preserve">
<style type="text/css">
	.st0{fill:#FFFFFF;}
</style>
<g>
	<path class="st0" d="M4.1,6.8c0-0.4-0.1-0.8-0.3-1S3.2,5.4,2.6,5.2S1.5,4.8,1.2,4.5S0.6,4,0.5,3.7s-0.2-0.6-0.2-1
		C0.2,2,0.4,1.4,0.9,1s1-0.7,1.8-0.7c0.5,0,0.9,0.1,1.3,0.3s0.7,0.5,0.9,0.9c0.2,0.5,0.3,1,0.3,1.4H4.1C4.1,2.4,4,2,3.8,1.7
		S3.1,1.3,2.7,1.3s-0.8,0.1-1,0.4c-0.2,0.2-0.4,0.6-0.4,1s0.1,0.7,0.4,0.9S2.3,4,2.9,4.2c0.8,0.3,1.4,0.6,1.8,1s0.5,0.9,0.5,1.6
		S5,8,4.5,8.5s-1,0.6-1.8,0.6c-0.5,0-1-0.1-1.4-0.3s-0.8-0.5-1-0.9S0,7,0,6.5h1.1c0,0.5,0.1,0.9,0.4,1.2s0.7,0.4,1.2,0.4
		S3.5,8,3.8,7.7S4.1,7.3,4.1,6.8z"/>
	<path class="st0" d="M8.8,9.1C8,9.1,7.4,8.9,6.9,8.4S6.3,7.2,6.3,6.3V5.6c0-0.9,0.2-1.7,0.6-2.2s1-0.8,1.7-0.8s1.3,0.2,1.7,0.7
		s0.6,1.2,0.6,2.2v0.7H7.3v0.1c0,0.7,0.1,1.2,0.4,1.5C8,8.1,8.3,8.3,8.8,8.3c0.3,0,0.6-0.1,0.8-0.2s0.5-0.3,0.7-0.5l0.5,0.7
		C10.4,8.8,9.7,9.1,8.8,9.1z M8.6,3.4c-0.4,0-0.7,0.1-1,0.4S7.4,4.6,7.3,5.2h2.5V5.1c0-0.6-0.1-1-0.3-1.3S9,3.4,8.6,3.4z"/>
	<path class="st0" d="M11.9,5.5c0-1,0.2-1.7,0.5-2.2s0.9-0.8,1.6-0.8c0.6,0,1.1,0.3,1.5,0.8l0.1-0.7h0.9V9c0,0.8-0.2,1.4-0.6,1.8
		s-1,0.6-1.7,0.6c-0.3,0-0.7-0.1-1.1-0.2s-0.7-0.3-0.9-0.6l0.4-0.7c0.4,0.4,0.9,0.6,1.4,0.6c0.9,0,1.3-0.5,1.3-1.4V8.4
		c-0.3,0.5-0.8,0.7-1.4,0.7c-0.7,0-1.2-0.2-1.5-0.7s-0.6-1.2-0.6-2.1V5.5H11.9z M12.9,6.1c0,0.7,0.1,1.2,0.3,1.6
		c0.2,0.3,0.6,0.5,1,0.5c0.5,0,0.9-0.3,1.2-0.8V4.2c-0.3-0.5-0.7-0.8-1.1-0.8c-0.5,0-0.8,0.2-1,0.5S13,4.7,13,5.4L12.9,6.1L12.9,6.1
		z"/>
	<path class="st0" d="M21.3,8.4c-0.3,0.4-0.8,0.7-1.5,0.7c-0.6,0-1-0.2-1.3-0.6S18,7.5,18,6.8V2.7h1v4.1c0,1,0.3,1.5,0.9,1.5
		S21,8,21.2,7.5V2.7h1V9h-1L21.3,8.4z"/>
	<path class="st0" d="M26.4,3.6c-0.1,0-0.3,0-0.5,0c-0.5,0-0.9,0.3-1.1,0.9V9h-1V2.7h1v0.6c0.3-0.5,0.7-0.8,1.2-0.8
		c0.2,0,0.3,0,0.4,0.1V3.6z"/>
	<path class="st0" d="M27.1,5.5c0-0.9,0.2-1.7,0.7-2.2s1-0.8,1.8-0.8s1.3,0.3,1.8,0.8S32,4.6,32,5.5v0.7c0,0.9-0.2,1.6-0.7,2.2
		s-1,0.8-1.8,0.8c-0.7,0-1.3-0.3-1.8-0.8S27,7.2,27,6.3V5.5H27.1z M28.2,6.1c0,0.7,0.1,1.2,0.4,1.5s0.6,0.6,1,0.6
		c0.9,0,1.4-0.7,1.4-2V5.5c0-0.6-0.1-1.2-0.4-1.5s-0.6-0.6-1-0.6s-0.8,0.2-1,0.6s-0.4,0.9-0.4,1.5V6.1z"/>
	<path class="st0" d="M36.5,7.4c0-0.2-0.1-0.4-0.3-0.6s-0.5-0.3-1-0.6c-0.6-0.2-1-0.4-1.2-0.6S33.6,5.2,33.5,5s-0.2-0.5-0.2-0.7
		c0-0.5,0.2-0.9,0.6-1.3s0.9-0.5,1.4-0.5c0.6,0,1.1,0.2,1.5,0.5s0.6,0.8,0.6,1.4h-1c0-0.3-0.1-0.5-0.3-0.7s-0.4-0.3-0.7-0.3
		s-0.5,0.1-0.7,0.2c-0.2,0.2-0.3,0.4-0.3,0.6c0,0.2,0.1,0.4,0.2,0.5C34.7,4.8,35,5,35.5,5.2c0.8,0.3,1.3,0.6,1.6,0.9
		s0.4,0.7,0.4,1.1c0,0.6-0.2,1-0.6,1.3S36,9.1,35.4,9.1c-0.7,0-1.2-0.2-1.6-0.6s-0.6-0.9-0.6-1.4h1c0,0.4,0.1,0.6,0.3,0.8
		s0.5,0.3,0.9,0.3c0.3,0,0.6-0.1,0.8-0.2S36.5,7.6,36.5,7.4z"/>
	<path class="st0" d="M47.1,6.3c0,0.9-0.3,1.6-0.8,2.1s-1.1,0.7-2,0.7s-1.5-0.3-2-1s-0.8-1.5-0.8-2.6V3.9c0-1.1,0.3-2,0.8-2.6
		s1.2-1,2.1-1c0.8,0,1.5,0.2,1.9,0.7S47,2.2,47,3.1h-1c0-0.7-0.2-1.2-0.4-1.5S45,1.2,44.5,1.2c-0.6,0-1,0.2-1.3,0.7s-0.5,1.1-0.5,2
		v1.6c0,0.9,0.1,1.5,0.4,2s0.7,0.7,1.3,0.7s1-0.1,1.2-0.4S45.9,7,46,6.3H47.1z"/>
	<path class="st0" d="M48.2,5.5c0-0.9,0.2-1.7,0.7-2.2s1-0.8,1.8-0.8s1.3,0.3,1.8,0.8s0.7,1.2,0.7,2.1v0.7c0,0.9-0.2,1.6-0.7,2.2
		s-1,0.8-1.8,0.8c-0.7,0-1.3-0.3-1.8-0.8s-0.7-1.2-0.7-2.1V5.5z M49.2,6.1c0,0.7,0.1,1.2,0.4,1.5s0.6,0.6,1,0.6c0.9,0,1.4-0.7,1.4-2
		V5.5c0-0.6-0.1-1.2-0.4-1.5s-0.6-0.6-1-0.6s-0.8,0.2-1,0.6s-0.4,0.9-0.4,1.5V6.1z"/>
	<path class="st0" d="M55.4,2.7v0.6c0.4-0.5,0.9-0.7,1.5-0.7c0.7,0,1.2,0.3,1.5,0.9c0.4-0.6,1-0.9,1.7-0.9c1.2,0,1.8,0.7,1.8,2.2V9
		h-1V4.8c0-0.5-0.1-0.8-0.2-1s-0.4-0.3-0.8-0.3c-0.3,0-0.6,0.1-0.8,0.4s-0.3,0.6-0.3,0.9V9h-1V4.8c0-0.9-0.4-1.3-1.1-1.3
		c-0.5,0-0.9,0.3-1.1,0.8V9h-1V2.7H55.4z"/>
	<path class="st0" d="M65.7,9.1c-0.8,0-1.4-0.2-1.8-0.7s-0.6-1.2-0.6-2.1V5.6c0-0.9,0.2-1.7,0.6-2.2s1-0.8,1.7-0.8
		c0.7,0,1.3,0.2,1.7,0.7s0.6,1.2,0.6,2.2v0.7h-3.5v0.1c0,0.7,0.1,1.2,0.4,1.5s0.6,0.5,1.1,0.5c0.3,0,0.6-0.1,0.8-0.2
		s0.5-0.3,0.7-0.5l0.5,0.7C67.3,8.8,66.6,9.1,65.7,9.1z M65.6,3.4c-0.4,0-0.7,0.1-1,0.4s-0.3,0.8-0.4,1.4h2.5V5.1
		c0-0.6-0.1-1-0.3-1.3S66,3.4,65.6,3.4z"/>
	<path class="st0" d="M71.7,3.6c-0.1,0-0.3,0-0.5,0c-0.5,0-0.9,0.3-1.1,0.9V9h-1V2.7h1v0.6c0.3-0.5,0.7-0.8,1.2-0.8
		c0.2,0,0.3,0,0.4,0.1V3.6z"/>
	<path class="st0" d="M74.8,8.2c0.3,0,0.6-0.1,0.8-0.3S76,7.4,76,7h1c0,0.6-0.2,1.1-0.6,1.5s-0.9,0.6-1.5,0.6
		c-0.8,0-1.4-0.2-1.8-0.7s-0.6-1.2-0.6-2.2V5.5c0-1,0.2-1.7,0.6-2.2s1-0.7,1.8-0.7c0.6,0,1.2,0.2,1.5,0.6s0.6,1,0.6,1.7h-1
		c0-0.5-0.1-0.8-0.3-1.1s-0.5-0.4-0.8-0.4c-0.5,0-0.8,0.2-1,0.5s-0.3,0.8-0.3,1.5v0.8c0,0.7,0.1,1.3,0.3,1.6S74.3,8.2,74.8,8.2z"/>
	<path class="st0" d="M79.4,1c0,0.2,0,0.3-0.1,0.4S79,1.6,78.8,1.6s-0.3-0.1-0.4-0.2S78.2,1.2,78.2,1s0-0.3,0.1-0.4s0.2-0.2,0.4-0.2
		s0.3,0.1,0.4,0.2S79.4,0.8,79.4,1z M79.3,9h-1V2.7h1V9z"/>
	<path class="st0" d="M84.2,9c-0.1-0.1-0.1-0.4-0.1-0.7c-0.4,0.5-0.8,0.8-1.4,0.8s-1-0.2-1.3-0.5s-0.5-0.8-0.5-1.4s0.2-1.2,0.7-1.5
		s1-0.6,1.8-0.6H84V4.5c0-0.4-0.1-0.6-0.3-0.8S83.3,3.4,83,3.4s-0.6,0.1-0.8,0.3s-0.3,0.4-0.3,0.7h-1c0-0.3,0.1-0.6,0.3-0.9
		S81.6,3,82,2.8s0.7-0.3,1.1-0.3c0.6,0,1.1,0.2,1.5,0.5S85,3.8,85,4.4v3.2c0,0.5,0.1,0.9,0.2,1.3V9H84.2z M82.8,8.2
		c0.3,0,0.5-0.1,0.7-0.2s0.4-0.3,0.5-0.5V5.9h-0.6c-0.5,0-0.9,0.1-1.2,0.3s-0.4,0.5-0.4,0.9s0.1,0.6,0.2,0.8
		C82.1,8.1,82.4,8.2,82.8,8.2z"/>
	<path class="st0" d="M87.8,9h-1V0h1V9z"/>
	<path class="st0" d="M91.7,9.1c-0.8,0-1.4-0.2-1.8-0.7s-0.6-1.2-0.6-2.1V5.6c0-0.9,0.2-1.7,0.6-2.2s1-0.8,1.7-0.8s1.3,0.2,1.7,0.7
		s0.6,1.2,0.6,2.2v0.7h-3.5v0.1c0,0.7,0.1,1.2,0.4,1.5s0.6,0.5,1.1,0.5c0.3,0,0.6-0.1,0.8-0.2s0.5-0.3,0.7-0.5l0.5,0.7
		C93.3,8.8,92.6,9.1,91.7,9.1z M91.5,3.4c-0.4,0-0.7,0.1-1,0.4s-0.3,0.8-0.4,1.4h2.5V5.1c0-0.6-0.1-1-0.3-1.3S91.9,3.4,91.5,3.4z"/>
	<path class="st0" d="M98.1,7.4c0-0.2-0.1-0.4-0.3-0.6s-0.5-0.3-1-0.6c-0.6-0.2-1-0.4-1.2-0.6S95.2,5.2,95.1,5S95,4.6,95,4.3
		c0-0.5,0.2-0.9,0.6-1.3s0.9-0.5,1.4-0.5c0.6,0,1.1,0.2,1.5,0.5s0.6,0.8,0.6,1.4h-1c0-0.3-0.1-0.5-0.3-0.7S97.3,3.4,97,3.4
		s-0.5,0.1-0.7,0.2C96.1,3.8,96,4,96,4.3c0,0.2,0.1,0.4,0.2,0.5s0.4,0.3,0.9,0.5c0.8,0.3,1.3,0.6,1.6,0.9c0.3,0.3,0.4,0.7,0.4,1.1
		c0,0.6-0.2,1-0.6,1.3S97.7,9.1,97,9.1s-1.2-0.2-1.6-0.6s-0.6-0.9-0.6-1.4h1c0,0.4,0.1,0.6,0.3,0.8s0.5,0.3,0.9,0.3
		c0.3,0,0.6-0.1,0.8-0.2S98.1,7.6,98.1,7.4z"/>
	<path class="st0" d="M103.4,9V0.5h2.4c0.8,0,1.4,0.2,1.8,0.6s0.6,0.9,0.6,1.7c0,0.4-0.1,0.8-0.3,1.1s-0.5,0.5-0.8,0.7
		c0.4,0.1,0.7,0.4,0.9,0.7s0.3,0.8,0.3,1.3c0,0.8-0.2,1.4-0.6,1.8c-0.4,0.4-1,0.7-1.8,0.7L103.4,9L103.4,9z M104.4,4.1h1.4
		c0.4,0,0.7-0.1,0.9-0.4s0.3-0.6,0.3-1c0-0.5-0.1-0.8-0.3-1c-0.2-0.2-0.5-0.3-0.9-0.3h-1.4V4.1z M104.4,5v3.1h1.5
		c0.4,0,0.7-0.1,1-0.4s0.4-0.6,0.4-1.1c0-1-0.4-1.5-1.3-1.5h-1.6V5z"/>
	<path class="st0" d="M109.6,5.5c0-0.9,0.2-1.7,0.7-2.2s1-0.8,1.8-0.8s1.3,0.3,1.8,0.8s0.7,1.2,0.7,2.1v0.7c0,0.9-0.2,1.6-0.7,2.2
		s-1,0.8-1.8,0.8c-0.7,0-1.3-0.3-1.8-0.8s-0.7-1.2-0.7-2.1V5.5z M110.6,6.1c0,0.7,0.1,1.2,0.4,1.5s0.6,0.6,1,0.6
		c0.9,0,1.4-0.7,1.4-2V5.5c0-0.6-0.1-1.2-0.4-1.5s-0.6-0.6-1-0.6s-0.8,0.2-1,0.6s-0.4,0.9-0.4,1.5V6.1z"/>
	<path class="st0" d="M116.9,9h-1V0h1V9z"/>
	<path class="st0" d="M119.7,0h1.3l-1.6,1.7h-0.9L119.7,0z M119.7,9h-1V2.7h1V9z"/>
	<path class="st0" d="M123.2,7.4l1.2-4.8h1.1l-2,6.4h-0.8l-1.9-6.3h1.1L123.2,7.4z"/>
	<path class="st0" d="M129.7,9c-0.1-0.1-0.1-0.4-0.1-0.7c-0.4,0.5-0.8,0.8-1.4,0.8c-0.6,0-1-0.2-1.3-0.5s-0.5-0.8-0.5-1.4
		s0.2-1.2,0.7-1.5s1-0.6,1.8-0.6h0.8V4.5c0-0.4-0.1-0.6-0.3-0.8s-0.4-0.2-0.8-0.2c-0.3,0-0.6,0.1-0.8,0.3s-0.3,0.4-0.3,0.7h-1
		c0-0.3,0.1-0.6,0.3-0.9s0.4-0.5,0.8-0.7s0.7-0.3,1.1-0.3c0.6,0,1.1,0.2,1.5,0.5s0.5,0.8,0.5,1.4v3.2c0,0.5,0.1,0.9,0.2,1.3l0,0
		H129.7z M128.3,8.2c0.3,0,0.5-0.1,0.7-0.2s0.4-0.3,0.5-0.5V5.9h-0.6c-0.5,0-0.9,0.1-1.2,0.3s-0.4,0.5-0.4,0.9s0.1,0.6,0.2,0.8
		C127.6,8.1,127.9,8.2,128.3,8.2z"/>
	<path class="st0" d="M134.8,3.6c-0.1,0-0.3,0-0.5,0c-0.5,0-0.9,0.3-1.1,0.9V9h-1V2.7h1v0.6c0.3-0.5,0.7-0.8,1.2-0.8
		c0.2,0,0.3,0,0.4,0.1L134.8,3.6z"/>
	<path class="st0" d="M142.4,6.8c0-0.4-0.1-0.8-0.3-1s-0.6-0.4-1.2-0.7s-1.1-0.4-1.4-0.7s-0.6-0.5-0.7-0.8s-0.2-0.6-0.2-1
		c0-0.7,0.2-1.2,0.7-1.7s1-0.7,1.8-0.7c0.5,0,0.9,0.1,1.3,0.3c0.4,0.2,0.7,0.5,0.9,0.9s0.3,0.8,0.3,1.3h-1.1c0-0.5-0.1-0.9-0.4-1.2
		s-0.6-0.4-1.1-0.4c-0.4,0-0.8,0.1-1,0.4c-0.2,0.2-0.4,0.6-0.4,1s0.1,0.7,0.4,0.9c0.3,0.2,0.7,0.5,1.2,0.7c0.8,0.3,1.4,0.6,1.8,1
		s0.5,0.9,0.5,1.6s-0.2,1.2-0.7,1.7S141.7,9,141,9c-0.5,0-1-0.1-1.4-0.3s-0.8-0.5-1-0.9s-0.4-0.8-0.4-1.4h1.1c0,0.5,0.1,0.9,0.4,1.2
		s0.7,0.4,1.2,0.4s0.8-0.1,1.1-0.4S142.4,7.3,142.4,6.8z"/>
	<path class="st0" d="M144.8,8.4c0-0.2,0.1-0.3,0.2-0.5s0.3-0.2,0.5-0.2s0.4,0.1,0.5,0.2s0.2,0.3,0.2,0.5s-0.1,0.3-0.2,0.5
		s-0.3,0.2-0.5,0.2S145.1,9,145,8.9S144.8,8.6,144.8,8.4z"/>
	<path class="st0" d="M152.1,6.8h-2.9L148.5,9h-1.1l2.7-8.5h0.9l2.8,8.5h-1.1L152.1,6.8z M149.5,5.8h2.3L150.6,2L149.5,5.8z"/>
	<path class="st0" d="M154.9,8.4c0-0.2,0.1-0.3,0.2-0.5s0.3-0.2,0.5-0.2s0.4,0.1,0.5,0.2s0.2,0.3,0.2,0.5s-0.1,0.3-0.2,0.5
		s-0.3,0.2-0.5,0.2s-0.4-0.1-0.5-0.2S154.9,8.6,154.9,8.4z"/>
</g>
</svg>
